<?xml version="1.0" standalone="no"?>
<!DOCTYPE svg PUBLIC "-//W3C//DTD SVG 20010904//EN"
 "http://www.w3.org/TR/2001/REC-SVG-20010904/DTD/svg10.dtd">
<svg version="1.0" xmlns="http://www.w3.org/2000/svg"
 width="225.000000pt" height="225.000000pt" viewBox="0 0 225.000000 225.000000"
 preserveAspectRatio="xMidYMid meet">

<g transform="translate(0.000000,225.000000) scale(0.100000,-0.100000)"
fill="#000000" stroke="none">
<path d="M1130 1071 l0 -241 40 0 c33 0 40 3 40 20 0 25 4 25 41 -2 63 -47
149 -23 194 53 26 44 27 159 1 207 -35 67 -127 92 -193 52 l-32 -19 -3 82 -3
82 -42 3 -43 3 0 -240z m220 17 c16 -17 20 -35 20 -85 0 -54 -4 -68 -25 -88
-32 -33 -60 -31 -96 4 -25 25 -29 37 -29 84 0 70 26 107 75 107 22 0 41 -8 55
-22z"/>
<path d="M1500 1035 c0 -79 5 -144 11 -159 26 -56 121 -70 181 -26 34 25 38
25 38 0 0 -17 7 -20 40 -20 l40 0 0 170 0 170 -45 0 -45 0 0 -115 c0 -110 -1
-117 -25 -140 -28 -28 -66 -32 -89 -9 -13 12 -16 40 -16 140 l0 124 -45 0 -45
0 0 -135z"/>
<path d="M1850 1163 c0 -4 27 -82 60 -172 33 -91 60 -175 60 -188 0 -32 -34
-63 -70 -63 -27 0 -30 -3 -30 -34 0 -28 4 -35 25 -40 51 -13 119 14 141 56 16
30 154 425 154 439 0 5 -20 9 -43 9 l-44 0 -40 -127 -40 -128 -40 125 -39 125
-47 3 c-26 2 -47 -1 -47 -5z"/>
<path d="M883 710 c0 -30 2 -43 4 -27 2 15 2 39 0 55 -2 15 -4 2 -4 -28z"/>
<path d="M910 750 c0 -5 5 -10 11 -10 5 0 7 5 4 10 -3 6 -8 10 -11 10 -2 0 -4
-4 -4 -10z"/>
<path d="M1152 710 c0 -52 0 -53 10 -21 10 36 23 32 31 -9 3 -18 5 -15 6 13 1
30 -2 37 -18 37 -11 0 -22 8 -24 18 -3 9 -5 -8 -5 -38z"/>
<path d="M475 735 c4 -11 11 -33 15 -50 4 -16 8 -22 9 -12 1 10 8 31 16 47 9
17 11 30 6 30 -5 0 -12 -7 -15 -17 -6 -14 -8 -14 -22 3 -15 19 -15 19 -9 -1z"/>
<path d="M544 716 c-10 -26 0 -51 21 -51 16 0 20 7 20 30 0 33 -30 49 -41 21z
m32 -32 c-5 -13 -10 -14 -18 -6 -6 6 -8 18 -4 28 5 13 10 14 18 6 6 -6 8 -18
4 -28z"/>
<path d="M602 698 c2 -28 8 -34 31 -36 25 -3 27 -1 27 32 0 20 -4 36 -10 36
-5 0 -10 -11 -10 -24 0 -14 -4 -28 -10 -31 -6 -4 -10 7 -10 24 0 17 -5 31 -11
31 -6 0 -9 -14 -7 -32z"/>
<path d="M670 693 c0 -18 5 -33 10 -33 6 0 10 10 10 23 0 13 5 28 11 34 9 9 7
12 -10 10 -17 -1 -21 -8 -21 -34z"/>
<path d="M745 711 c-8 -26 4 -51 25 -51 10 0 21 7 24 16 10 25 -3 54 -24 54
-10 0 -21 -8 -25 -19z m35 -17 c0 -14 -4 -23 -10 -19 -5 3 -10 15 -10 26 0 10
5 19 10 19 6 0 10 -12 10 -26z"/>
<path d="M810 693 c0 -18 5 -33 10 -33 6 0 10 14 10 30 0 40 18 38 23 -2 4
-33 4 -33 5 4 2 35 0 38 -23 36 -21 -2 -25 -7 -25 -35z"/>
<path d="M910 695 c0 -19 5 -35 10 -35 6 0 10 16 10 35 0 19 -4 35 -10 35 -5
0 -10 -16 -10 -35z"/>
<path d="M940 693 c0 -18 5 -33 10 -33 6 0 10 14 10 30 0 17 5 30 10 30 6 0
10 -14 10 -31 0 -16 4 -28 8 -25 5 3 7 19 4 35 -3 25 -9 30 -28 29 -20 -2 -24
-8 -24 -35z"/>
<path d="M1014 716 c-10 -26 1 -51 24 -54 12 -2 22 1 22 7 0 6 -6 8 -14 5 -8
-3 -17 -1 -21 5 -3 7 3 11 15 11 15 0 20 5 18 17 -4 23 -36 29 -44 9z m31 -6
c3 -5 -1 -10 -10 -10 -9 0 -13 5 -10 10 3 6 8 10 10 10 2 0 7 -4 10 -10z"/>
<path d="M1100 711 c0 -11 6 -22 13 -24 9 -4 8 -8 -3 -16 -13 -9 -13 -11 2
-11 26 0 32 19 13 40 -15 17 -15 19 2 23 14 4 14 5 -4 6 -16 1 -23 -5 -23 -18z"/>
<path d="M1224 716 c-10 -26 0 -51 21 -51 16 0 20 7 20 30 0 33 -30 49 -41 21z
m32 -32 c-5 -13 -10 -14 -18 -6 -6 6 -8 18 -4 28 5 13 10 14 18 6 6 -6 8 -18
4 -28z"/>
<path d="M1291 676 c1 -28 3 -44 6 -35 2 10 13 19 24 22 30 8 23 62 -8 63 -21
1 -23 -3 -22 -50z m29 17 c0 -20 -3 -24 -11 -16 -7 7 -9 19 -6 27 10 24 17 19
17 -11z"/>
<path d="M1350 680 c0 -27 5 -50 10 -50 6 0 10 7 10 15 0 8 6 15 14 15 15 0
24 25 18 53 -2 10 -13 17 -28 17 -22 0 -24 -4 -24 -50z m40 15 c0 -8 -4 -17
-10 -20 -6 -4 -10 5 -10 20 0 15 4 24 10 20 6 -3 10 -12 10 -20z"/>
<path d="M1423 695 c0 -22 2 -30 4 -17 2 12 2 30 0 40 -3 9 -5 -1 -4 -23z"/>
<path d="M1451 690 l1 -35 7 30 c3 17 11 30 16 30 5 0 13 -13 16 -30 6 -29 7
-29 8 7 1 34 -1 38 -24 36 -22 -2 -25 -7 -24 -38z"/>
<path d="M1518 688 c-6 -50 2 -63 31 -53 28 9 27 35 -1 35 -20 1 -21 2 -7 13
8 7 18 20 22 30 5 13 1 17 -17 17 -21 0 -25 -6 -28 -42z m32 22 c0 -5 -4 -10
-10 -10 -5 0 -10 5 -10 10 0 6 5 10 10 10 6 0 10 -4 10 -10z m0 -60 c0 -5 -4
-10 -9 -10 -6 0 -13 5 -16 10 -3 6 1 10 9 10 9 0 16 -4 16 -10z"/>
<path d="M1600 680 c0 -27 5 -50 10 -50 6 0 10 7 10 15 0 8 6 15 14 15 17 0
28 27 21 51 -4 12 -16 19 -31 19 -22 0 -24 -4 -24 -50z m40 20 c0 -11 -4 -20
-10 -20 -5 0 -10 9 -10 20 0 11 5 20 10 20 6 0 10 -9 10 -20z"/>
<path d="M1683 724 c21 -7 23 -24 2 -24 -8 0 -15 -9 -15 -20 0 -15 6 -19 25
-18 22 2 26 7 23 33 -2 24 -8 30 -28 32 -14 1 -18 0 -7 -3z m17 -44 c0 -5 -4
-10 -10 -10 -5 0 -10 5 -10 10 0 6 5 10 10 10 6 0 10 -4 10 -10z"/>
<path d="M1737 723 c-2 -5 -5 -27 -6 -51 -1 -40 1 -43 21 -40 26 3 38 38 14
38 -20 0 -21 16 -1 24 22 8 18 36 -4 36 -11 0 -22 -3 -24 -7z m23 -13 c0 -5
-5 -10 -11 -10 -5 0 -7 5 -4 10 3 6 8 10 11 10 2 0 4 -4 4 -10z m5 -60 c-3 -5
-10 -10 -16 -10 -5 0 -9 5 -9 10 0 6 7 10 16 10 8 0 12 -4 9 -10z"/>
<path d="M1794 716 c-10 -26 1 -51 24 -54 12 -2 22 1 22 7 0 6 -6 8 -14 5 -8
-3 -17 -1 -21 5 -3 7 3 11 15 11 15 0 20 5 18 17 -4 23 -36 29 -44 9z m36 -6
c0 -5 -4 -10 -10 -10 -5 0 -10 5 -10 10 0 6 5 10 10 10 6 0 10 -4 10 -10z"/>
</g>
</svg>
